# xmcd
#
# Track frame offsets:
#	150
#	18704
#	36432
#	55948
#	72013
#	92851
#	111880
#	139933
#	157706
#	175495
#
# Disc length: 2459 seconds
#
# Revision: 0
# Processed by: cddbd v1.4PL0 Copyright (c) Steve Scherf et al.
# Submitted via: OrangeCD 4.1
#
DISCID=8809990a
DTITLE=Don Francisco - One Heart At A Time
DYEAR=1900
DGENRE=
TTITLE0=One Heart At A Time
TTITLE1=Still Your Soul In Silence
TTITLE2=Turn It Around
TTITLE3=So Satisfied
TTITLE4=Crooked Cornerstone
TTITLE5=Prodigal's Song
TTITLE6=It Ain't No Sin
TTITLE7=Don't Let Me Go
TTITLE8=I Have Chosen You
TTITLE9=There Are No Words
EXTD=
EXTT0=
EXTT1=
EXTT2=
EXTT3=
EXTT4=
EXTT5=
EXTT6=
EXTT7=
EXTT8=
EXTT9=
PLAYORDER=
